<svg width="748" height="542" viewBox="0 0 748 542" fill="none" xmlns="http://www.w3.org/2000/svg">
<path fill-rule="evenodd" clip-rule="evenodd" d="M662.397 67.3106V106.378C662.397 140.283 619.468 166.844 564.666 166.844C509.863 166.844 466.932 140.283 466.932 106.378V47.2754L398.955 85.6442C438.582 91.8846 467.78 112.731 471.341 138.796C471.573 139.516 471.731 140.27 471.731 141.069V204.384C471.731 238.291 428.802 264.852 373.995 264.852C319.189 264.852 276.262 238.291 276.262 204.384V141.069C276.262 140.27 276.42 139.516 276.652 138.796C280.213 112.733 309.408 91.8867 349.032 85.6442L281.061 47.2797V104.342C281.061 138.249 238.132 164.81 183.327 164.81C128.523 164.81 85.5938 138.249 85.5938 104.342V67.3085L7.83398 111.2L373.995 317.867L740.159 111.2L662.397 67.3106Z" fill="#276AE3"/>
<path d="M183.329 0.623047C138.435 0.623047 100.505 21.4847 100.505 46.18C100.505 70.8753 138.435 91.739 183.329 91.739C228.224 91.739 266.154 70.8753 266.154 46.18C266.154 21.4847 228.226 0.623047 183.329 0.623047Z" fill="#276AE3"/>
<path d="M183.329 106.644C148.013 106.644 117.65 95.6027 100.505 78.6855V104.341C100.505 129.037 138.435 149.9 183.329 149.9C228.224 149.9 266.154 129.037 266.154 104.341V78.6855C249.011 95.6027 218.646 106.644 183.329 106.644Z" fill="#276AE3"/>
<path d="M565.797 0.623047C520.903 0.623047 482.973 21.4847 482.973 46.18C482.973 70.8753 520.903 91.739 565.797 91.739C610.692 91.739 648.622 70.8753 648.622 46.18C648.622 21.4847 610.692 0.623047 565.797 0.623047Z" fill="#276AE3"/>
<path d="M565.797 106.644C530.48 106.644 500.118 95.6027 482.973 78.6855V104.341C482.973 129.037 520.903 149.9 565.797 149.9C610.692 149.9 648.622 129.037 648.622 104.341V78.6855C631.479 95.6027 601.114 106.644 565.797 106.644Z" fill="#276AE3"/>
<path d="M374.57 98.7148C329.676 98.7148 291.746 119.576 291.746 144.272C291.746 168.967 329.676 189.831 374.57 189.831C419.465 189.831 457.395 168.967 457.395 144.272C457.395 119.576 419.465 98.7148 374.57 98.7148Z" fill="#276AE3"/>
<path d="M374.57 204.741C339.253 204.741 308.891 193.7 291.746 176.783V202.439C291.746 227.134 329.676 247.998 374.57 247.998C419.465 247.998 457.395 227.134 457.395 202.439V176.783C440.252 193.7 409.887 204.741 374.57 204.741Z" fill="#276AE3"/>
<path d="M478.802 417.767L487.619 412.691L482.476 339.24L478.802 417.767Z" fill="#276AE3"/>
<path d="M609.581 243.561C606.887 245.112 606.152 246.758 606.152 251.414V372.643C606.152 376.562 607.132 377.467 609.581 376.057C612.031 374.647 612.765 372.756 612.765 368.592V247.855C612.765 242.956 612.031 242.153 609.581 243.561Z" fill="#276AE3"/>
<path d="M381.455 330.918V541.984L747.878 335.169V124.102L381.455 330.918ZM449.171 483.797L429.823 494.932L419.536 419.052L419.781 500.71L403.128 510.294V346.941L421.986 336.089L433.497 423.755V329.466L449.416 320.305L449.171 483.797ZM490.8 459.838L488.596 429.514L478.066 435.573L476.351 468.153L457.984 478.724L468.759 309.168L495.209 293.946L509.658 448.985L490.8 459.838ZM553.008 277.828L541.007 284.735V430.943L523.374 441.092V294.884L511.374 301.789V284.646L553.008 260.685V277.828ZM579.209 408.959L561.331 419.248V255.895L579.209 245.606V408.959ZM629.413 359.494C629.413 366.597 628.436 371.078 626.229 375.287C622.557 382.298 616.189 388.903 608.841 393.128C595.37 400.881 589.004 397.198 589.004 381.033V265.437C589.004 246.824 595.615 234.446 609.576 226.412C622.557 218.943 629.413 222.834 629.413 237.772V359.494ZM685.249 347.933L665.902 359.068L655.617 283.189L655.861 364.846L639.206 374.43V211.077L658.064 200.224L669.575 287.889V193.6L685.494 184.439L685.249 347.933ZM734.718 243.297V298.892C734.718 312.853 727.37 324.918 714.144 332.528C702.145 339.435 694.307 336.353 694.307 324.842V290.556L711.695 280.548V310.917C711.695 315.326 712.185 315.777 714.389 314.51C716.838 313.1 717.083 312.225 717.083 307.816V261.284C717.083 256.14 716.593 255.688 711.695 258.753L707.776 261.009C698.714 266.225 693.08 264.078 693.572 255.467V201.099C693.572 186.405 700.673 173.991 713.899 166.379C726.633 159.05 734.471 162.866 734.471 176.583V207.931L717.083 217.937V187.568C717.083 182.915 716.593 182.218 714.144 183.626C712.185 184.755 710.96 187.174 711.45 188.605L711.695 189.2V237.447L711.45 238.077C710.96 240.562 712.43 241.431 714.877 239.777L715.857 239.212L721 236.252C730.797 230.614 735.204 232.976 734.714 243.299L734.718 243.297Z" fill="#276AE3"/>
<path d="M281.074 321.625C278.333 320.072 277.583 320.894 277.583 325.631V449.046C277.583 453.035 278.582 455.097 281.074 456.509C283.566 457.921 284.315 456.847 284.315 452.609V329.693C284.315 324.707 283.566 323.037 281.074 321.623V321.625Z" fill="#276AE3"/>
<path d="M83.1242 210.758L81.627 209.91V273.488C82.3767 274.161 83.1242 274.584 83.6226 274.868C86.1145 276.28 86.615 275.813 86.615 271.824V217.969C86.615 213.482 86.1166 212.453 83.1242 210.758Z" fill="#276AE3"/>
<path d="M0.121582 124.102V335.167L366.545 541.981V330.916L0.121582 124.102ZM55.4501 231.242L38.2476 221.498V189.087C38.2476 185.098 37.5 183.677 35.0081 182.265C32.7654 180.993 32.0157 181.818 32.0157 185.059V309.222C32.0157 313.709 32.5141 314.989 35.0081 316.401C37.2508 317.673 38.0005 317.098 38.0005 313.858V280.946L55.2052 290.69V324.101C55.2052 337.565 47.2269 341.024 34.5118 333.823C22.293 326.903 14.566 315.296 14.566 304.076V177.17C14.566 161.214 21.2963 157.048 34.761 164.673C46.9777 171.592 55.4544 183.375 55.4544 193.845V231.244L55.4501 231.242ZM104.566 372.252L86.3667 361.943V294.128C86.3667 293.131 85.1207 291.925 83.1251 290.796L81.6278 289.949V359.262L63.6776 349.096V182.797L84.1218 194.377C96.5877 201.188 104.317 212.547 104.068 223.624V278.974C104.317 285.099 101.075 290.245 96.8369 290.087C102.57 296.328 104.815 302.334 104.566 310.171V372.252ZM146.947 246.658L132.735 238.609V296.204L146.947 304.253V320.957L132.735 312.908V371.001L146.947 379.05V396.255L114.284 377.755V211.456L146.947 229.956V246.658ZM188.581 419.834L186.338 386.4L175.619 380.328L173.873 411.502L155.173 400.913L166.141 240.824L193.069 256.076L207.777 430.707L188.581 419.834ZM251.911 306.855L239.693 299.936V448.783L221.743 438.615V289.768L209.526 282.848V265.396L251.911 289.401V306.853V306.855ZM301.27 462.714C301.27 469.944 300.273 473.369 298.029 475.09C294.291 477.959 287.805 477.28 280.328 473.043C266.614 465.278 260.133 454.126 260.133 437.671V319.99C260.133 301.041 266.863 296.127 281.075 304.176C294.291 311.66 301.27 323.591 301.27 338.801V462.714ZM352.128 512.46L333.927 502.152V434.336C333.927 433.339 332.679 432.134 330.685 431.005L329.188 430.157V499.47L311.238 489.305V323.006L331.682 334.586C344.148 341.397 351.877 352.755 351.628 363.832V419.182C351.877 425.308 348.635 430.453 344.397 430.296C350.133 436.536 352.375 442.542 352.126 450.38V512.462L352.128 512.46Z" fill="#276AE3"/>
<path d="M330.694 350.973L329.197 350.125V413.702C329.946 414.375 330.694 414.799 331.192 415.082C333.684 416.495 334.183 416.028 334.183 412.039V358.184C334.183 353.697 333.684 352.666 330.692 350.971L330.694 350.973Z" fill="#276AE3"/>
<path d="M176.368 363.049L185.343 368.133L180.108 287.379L176.368 363.049Z" fill="#276AE3"/>
</svg>
