<svg width="1920" height="1080" viewBox="0 0 1920 1080" fill="none" xmlns="http://www.w3.org/2000/svg">
<rect width="1920" height="1080" fill="white"/>
<line x1="952.5" y1="6.55671e-08" x2="952.5" y2="1080" stroke="#5890FE" stroke-width="3"/>
<rect x="1050" y="49" width="792" height="982" fill="#5890FE"/>
<mask id="mask0_2148_610" style="mask-type:alpha" maskUnits="userSpaceOnUse" x="1105" y="49" width="681" height="956">
<rect x="1105" y="49" width="681" height="955.14" fill="#FFF3CA"/>
</mask>
<g mask="url(#mask0_2148_610)">
<path d="M1320.27 533.042L1324.25 530.751L1321.93 497.6L1320.27 533.042Z" fill="#FBFBFB"/>
<path d="M1379.3 454.418C1378.08 455.118 1377.75 455.861 1377.75 457.963V512.678C1377.75 514.447 1378.19 514.855 1379.3 514.219C1380.4 513.583 1380.73 512.729 1380.73 510.85V456.356C1380.73 454.145 1380.4 453.783 1379.3 454.418Z" fill="#FBFBFB"/>
<path d="M1276.34 493.848V589.11L1441.72 495.767V400.504L1276.34 493.848ZM1306.9 562.848L1298.17 567.873L1293.53 533.626L1293.64 570.481L1286.12 574.807V501.08L1294.63 496.182L1299.83 535.749V493.192L1307.01 489.058L1306.9 562.848ZM1325.69 552.034L1324.7 538.348L1319.94 541.083L1319.17 555.787L1310.88 560.558L1315.74 484.031L1327.68 477.161L1334.2 547.136L1325.69 552.034ZM1353.77 469.886L1348.35 473.004V538.993L1340.39 543.573V477.584L1334.98 480.701V472.963L1353.77 462.149V469.886ZM1365.59 529.071L1357.52 533.715V459.987L1365.59 455.343V529.071ZM1388.25 506.745C1388.25 509.951 1387.81 511.974 1386.81 513.873C1385.16 517.038 1382.28 520.018 1378.97 521.926C1372.89 525.425 1370.01 523.763 1370.01 516.467V464.294C1370.01 455.893 1373 450.306 1379.3 446.68C1385.16 443.309 1388.25 445.065 1388.25 451.808V506.745ZM1413.45 501.527L1404.72 506.553L1400.08 472.306L1400.19 509.161L1392.67 513.487V439.759L1401.18 434.861L1406.38 474.427V431.871L1413.56 427.737L1413.45 501.527ZM1435.78 454.301V479.393C1435.78 485.694 1432.46 491.14 1426.49 494.575C1421.08 497.692 1417.54 496.301 1417.54 491.105V475.631L1425.39 471.114V484.821C1425.39 486.81 1425.61 487.014 1426.6 486.442C1427.71 485.806 1427.82 485.411 1427.82 483.421V462.419C1427.82 460.098 1427.6 459.894 1425.39 461.277L1423.62 462.295C1419.53 464.649 1416.99 463.68 1417.21 459.794V435.256C1417.21 428.624 1420.41 423.021 1426.38 419.585C1432.13 416.277 1435.67 418 1435.67 424.191V438.339L1427.82 442.855V429.149C1427.82 427.048 1427.6 426.734 1426.49 427.369C1425.61 427.879 1425.06 428.971 1425.28 429.617L1425.39 429.885V451.661L1425.28 451.945C1425.06 453.067 1425.72 453.459 1426.82 452.712L1427.27 452.458L1429.59 451.121C1434.01 448.577 1436 449.643 1435.78 454.302L1435.78 454.301Z" fill="#FBFBFB"/>
<path d="M1320.27 635.053L1324.25 632.763L1321.93 599.611L1320.27 635.053Z" fill="#FBFBFB"/>
<path d="M1379.3 556.426C1378.08 557.126 1377.75 557.869 1377.75 559.97V614.686C1377.75 616.455 1378.19 616.863 1379.3 616.227C1380.4 615.59 1380.73 614.737 1380.73 612.857V558.364C1380.73 556.153 1380.4 555.791 1379.3 556.426Z" fill="#FBFBFB"/>
<path d="M1276.34 595.856V691.117L1441.72 597.774V502.512L1276.34 595.856ZM1306.9 664.856L1298.17 669.881L1293.53 635.634L1293.64 672.489L1286.12 676.815V603.087L1294.63 598.19L1299.83 637.756V595.2L1307.01 591.066L1306.9 664.856ZM1325.69 654.042L1324.7 640.356L1319.94 643.091L1319.17 657.795L1310.88 662.566L1315.74 586.039L1327.68 579.169L1334.2 649.144L1325.69 654.042ZM1353.77 571.894L1348.35 575.012V641.001L1340.39 645.581V579.592L1334.98 582.708V574.971L1353.77 564.157V571.894ZM1365.59 631.079L1357.52 635.722V561.995L1365.59 557.351V631.079ZM1388.25 608.753C1388.25 611.959 1387.81 613.981 1386.81 615.881C1385.16 619.045 1382.28 622.026 1378.97 623.933C1372.89 627.432 1370.01 625.77 1370.01 618.474V566.302C1370.01 557.901 1373 552.314 1379.3 548.688C1385.16 545.317 1388.25 547.073 1388.25 553.816V608.753ZM1413.45 603.535L1404.72 608.561L1400.08 574.314L1400.19 611.169L1392.67 615.494V541.767L1401.18 536.868L1406.38 576.435V533.879L1413.56 529.744L1413.45 603.535ZM1435.78 556.309V581.401C1435.78 587.702 1432.46 593.148 1426.49 596.582C1421.08 599.7 1417.54 598.309 1417.54 593.113V577.639L1425.39 573.122V586.828C1425.39 588.818 1425.61 589.022 1426.6 588.45C1427.71 587.814 1427.82 587.419 1427.82 585.429V564.427C1427.82 562.106 1427.6 561.902 1425.39 563.285L1423.62 564.303C1419.53 566.657 1416.99 565.688 1417.21 561.802V537.264C1417.21 530.632 1420.41 525.028 1426.38 521.593C1432.13 518.285 1435.67 520.008 1435.67 526.198V540.347L1427.82 544.863V531.157C1427.82 529.056 1427.6 528.742 1426.49 529.377C1425.61 529.887 1425.06 530.979 1425.28 531.625L1425.39 531.893V553.669L1425.28 553.953C1425.06 555.075 1425.72 555.467 1426.82 554.72L1427.27 554.465L1429.59 553.129C1434.01 550.585 1436 551.651 1435.78 556.31L1435.78 556.309Z" fill="#FBFBFB"/>
<path d="M1320.27 737.069L1324.25 734.778L1321.93 701.627L1320.27 737.069Z" fill="#FBFBFB"/>
<path d="M1379.3 658.442C1378.08 659.142 1377.75 659.885 1377.75 661.986V716.701C1377.75 718.47 1378.19 718.879 1379.3 718.242C1380.4 717.606 1380.73 716.752 1380.73 714.873V660.38C1380.73 658.169 1380.4 657.806 1379.3 658.442Z" fill="#FBFBFB"/>
<path d="M1276.34 697.871V793.133L1441.72 699.79V604.527L1276.34 697.871ZM1306.9 766.871L1298.17 771.897L1293.53 737.65L1293.64 774.505L1286.12 778.83V705.103L1294.63 700.205L1299.83 739.772V697.216L1307.01 693.081L1306.9 766.871ZM1325.69 756.058L1324.7 742.371L1319.94 745.106L1319.17 759.811L1310.88 764.581L1315.74 688.055L1327.68 681.185L1334.2 751.159L1325.69 756.058ZM1353.77 673.91L1348.35 677.027V743.016L1340.39 747.597V681.608L1334.98 684.724V676.987L1353.77 666.173V673.91ZM1365.59 733.094L1357.52 737.738V664.011L1365.59 659.367V733.094ZM1388.25 710.769C1388.25 713.975 1387.81 715.997 1386.81 717.896C1385.16 721.061 1382.28 724.042 1378.97 725.949C1372.89 729.448 1370.01 727.786 1370.01 720.49V668.317C1370.01 659.917 1373 654.33 1379.3 650.704C1385.16 647.333 1388.25 649.089 1388.25 655.831V710.769ZM1413.45 705.551L1404.72 710.576L1400.08 676.329L1400.19 713.184L1392.67 717.51V643.783L1401.18 638.884L1406.38 678.451V635.895L1413.56 631.76L1413.45 705.551ZM1435.78 658.325V683.417C1435.78 689.718 1432.46 695.163 1426.49 698.598C1421.08 701.715 1417.54 700.324 1417.54 695.129V679.654L1425.39 675.137V688.844C1425.39 690.834 1425.61 691.038 1426.6 690.466C1427.71 689.829 1427.82 689.434 1427.82 687.444V666.443C1427.82 664.121 1427.6 663.917 1425.39 665.301L1423.62 666.319C1419.53 668.673 1416.99 667.704 1417.21 663.817V639.279C1417.21 632.647 1420.41 627.044 1426.38 623.609C1432.13 620.301 1435.67 622.023 1435.67 628.214V642.363L1427.82 646.879V633.172C1427.82 631.072 1427.6 630.757 1426.49 631.393C1425.61 631.902 1425.06 632.994 1425.28 633.64L1425.39 633.909V655.684L1425.28 655.969C1425.06 657.09 1425.72 657.483 1426.82 656.736L1427.27 656.481L1429.59 655.145C1434.01 652.6 1436 653.666 1435.78 658.326L1435.78 658.325Z" fill="#FBFBFB"/>
<path d="M1320.27 839.087L1324.25 836.796L1321.93 803.645L1320.27 839.087Z" fill="#FBFBFB"/>
<path d="M1379.3 760.459C1378.08 761.159 1377.75 761.902 1377.75 764.004V818.719C1377.75 820.488 1378.19 820.896 1379.3 820.26C1380.4 819.624 1380.73 818.77 1380.73 816.891V762.397C1380.73 760.186 1380.4 759.824 1379.3 760.459Z" fill="#FBFBFB"/>
<path d="M1276.34 799.889V895.151L1441.72 801.808V706.545L1276.34 799.889ZM1306.9 868.889L1298.17 873.914L1293.53 839.667L1293.64 876.522L1286.12 880.848V807.121L1294.63 802.223L1299.83 841.79V799.233L1307.01 795.099L1306.9 868.889ZM1325.69 858.075L1324.7 844.389L1319.94 847.124L1319.17 861.828L1310.88 866.599L1315.74 790.072L1327.68 783.202L1334.2 853.177L1325.69 858.075ZM1353.77 775.927L1348.35 779.045V845.034L1340.39 849.614V783.625L1334.98 786.742V779.004L1353.77 768.19V775.927ZM1365.59 835.112L1357.52 839.756V766.028L1365.59 761.384V835.112ZM1388.25 812.786C1388.25 815.992 1387.81 818.015 1386.81 819.914C1385.16 823.079 1382.28 826.059 1378.97 827.967C1372.89 831.466 1370.01 829.804 1370.01 822.508V770.335C1370.01 761.934 1373 756.347 1379.3 752.721C1385.16 749.35 1388.25 751.106 1388.25 757.849V812.786ZM1413.45 807.569L1404.72 812.594L1400.08 778.347L1400.19 815.202L1392.67 819.528V745.8L1401.18 740.902L1406.38 780.468V737.912L1413.56 733.778L1413.45 807.569ZM1435.78 760.342V785.434C1435.78 791.735 1432.46 797.181 1426.49 800.616C1421.08 803.733 1417.54 802.342 1417.54 797.146V781.672L1425.39 777.155V790.862C1425.39 792.851 1425.61 793.055 1426.6 792.483C1427.71 791.847 1427.82 791.452 1427.82 789.462V768.46C1427.82 766.139 1427.6 765.935 1425.39 767.318L1423.62 768.336C1419.53 770.69 1416.99 769.721 1417.21 765.835V741.297C1417.21 734.665 1420.41 729.062 1426.38 725.626C1432.13 722.318 1435.67 724.041 1435.67 730.232V744.38L1427.82 748.896V735.19C1427.82 733.089 1427.6 732.775 1426.49 733.41C1425.61 733.92 1425.06 735.012 1425.28 735.658L1425.39 735.926V757.702L1425.28 757.986C1425.06 759.108 1425.72 759.5 1426.82 758.753L1427.27 758.499L1429.59 757.162C1434.01 754.618 1436 755.684 1435.78 760.343L1435.78 760.342Z" fill="#FBFBFB"/>
<path d="M1320.27 941.098L1324.25 938.808L1321.93 905.656L1320.27 941.098Z" fill="#FBFBFB"/>
<path d="M1379.3 862.471C1378.08 863.171 1377.75 863.914 1377.75 866.015V920.731C1377.75 922.499 1378.19 922.908 1379.3 922.272C1380.4 921.635 1380.73 920.782 1380.73 918.902V864.409C1380.73 862.198 1380.4 861.836 1379.3 862.471Z" fill="#FBFBFB"/>
<path d="M1276.34 901.901V997.162L1441.72 903.819V808.557L1276.34 901.901ZM1306.9 970.9L1298.17 975.926L1293.53 941.679L1293.64 978.534L1286.12 982.86V909.132L1294.63 904.235L1299.83 943.801V901.245L1307.01 897.111L1306.9 970.9ZM1325.69 960.087L1324.69 946.401L1319.94 949.135L1319.17 963.84L1310.88 968.611L1315.74 892.084L1327.68 885.214L1334.2 955.189L1325.69 960.087ZM1353.77 877.939L1348.35 881.056V947.046L1340.39 951.626V885.637L1334.98 888.753V881.016L1353.77 870.202V877.939ZM1365.59 937.123L1357.52 941.767V868.04L1365.59 863.396V937.123ZM1388.25 914.798C1388.25 918.004 1387.81 920.026 1386.81 921.926C1385.16 925.09 1382.28 928.071 1378.97 929.978C1372.89 933.477 1370.01 931.815 1370.01 924.519V872.346C1370.01 863.946 1373 858.359 1379.3 854.733C1385.16 851.362 1388.25 853.118 1388.25 859.861V914.798ZM1413.45 909.58L1404.72 914.606L1400.08 880.359L1400.19 917.214L1392.67 921.539V847.812L1401.18 842.913L1406.38 882.48V839.924L1413.56 835.789L1413.45 909.58ZM1435.78 862.354V887.446C1435.78 893.747 1432.46 899.193 1426.49 902.627C1421.08 905.745 1417.54 904.354 1417.54 899.158V883.684L1425.39 879.167V892.873C1425.39 894.863 1425.61 895.067 1426.6 894.495C1427.71 893.859 1427.82 893.464 1427.82 891.474V870.472C1427.82 868.15 1427.6 867.947 1425.39 869.33L1423.62 870.348C1419.53 872.702 1416.99 871.733 1417.21 867.847V843.308C1417.21 836.677 1420.41 831.073 1426.38 827.638C1432.13 824.33 1435.67 826.053 1435.67 832.243V846.392L1427.82 850.908V837.201C1427.82 835.101 1427.6 834.787 1426.49 835.422C1425.61 835.932 1425.06 837.024 1425.28 837.67L1425.39 837.938V859.713L1425.28 859.998C1425.06 861.12 1425.72 861.512 1426.82 860.765L1427.27 860.51L1429.59 859.174C1434.01 856.63 1436 857.696 1435.78 862.355L1435.78 862.354Z" fill="#FBFBFB"/>
<path d="M1379.3 964.483C1378.08 965.183 1377.75 965.926 1377.75 968.027V1022.74C1377.75 1024.51 1378.19 1024.92 1379.3 1024.28C1380.4 1023.65 1380.73 1022.79 1380.73 1020.91V966.421C1380.73 964.21 1380.4 963.847 1379.3 964.483Z" fill="#FBFBFB"/>
<path d="M1276.34 1003.91V1099.17L1441.72 1005.83V910.568L1276.34 1003.91ZM1306.9 1072.91L1298.17 1077.94L1293.53 1043.69L1293.64 1080.55L1286.12 1084.87V1011.14L1294.63 1006.25L1299.83 1045.81V1003.26L1307.01 999.122L1306.9 1072.91ZM1325.69 1062.1L1324.7 1048.41L1319.94 1051.15L1319.17 1065.85L1310.88 1070.62L1315.74 994.096L1327.68 987.226L1334.2 1057.2L1325.69 1062.1ZM1353.77 979.951L1348.35 983.068V1049.06L1340.39 1053.64V987.649L1334.98 990.765V983.028L1353.77 972.214V979.951ZM1365.59 1039.14L1357.52 1043.78V970.052L1365.59 965.408V1039.14ZM1388.25 1016.81C1388.25 1020.02 1387.81 1022.04 1386.81 1023.94C1385.16 1027.1 1382.28 1030.08 1378.97 1031.99C1372.89 1035.49 1370.01 1033.83 1370.01 1026.53V974.358C1370.01 965.958 1373 960.371 1379.3 956.745C1385.16 953.374 1388.25 955.13 1388.25 961.872V1016.81ZM1413.45 1011.59L1404.72 1016.62L1400.08 982.37L1400.19 1019.23L1392.67 1023.55V949.824L1401.18 944.925L1406.38 984.492V941.936L1413.56 937.801L1413.45 1011.59ZM1435.78 964.366V989.458C1435.78 995.759 1432.46 1001.2 1426.49 1004.64C1421.08 1007.76 1417.54 1006.37 1417.54 1001.17V985.695L1425.39 981.178V994.885C1425.39 996.875 1425.61 997.079 1426.6 996.507C1427.71 995.87 1427.82 995.475 1427.82 993.485V972.484C1427.82 970.162 1427.6 969.958 1425.39 971.342L1423.62 972.36C1419.53 974.714 1416.99 973.745 1417.21 969.858V945.32C1417.21 938.688 1420.41 933.085 1426.38 929.65C1432.13 926.342 1435.67 928.064 1435.67 934.255V948.404L1427.82 952.92V939.213C1427.82 937.113 1427.6 936.799 1426.49 937.434C1425.61 937.943 1425.06 939.035 1425.28 939.681L1425.39 939.95V961.725L1425.28 962.01C1425.06 963.131 1425.72 963.524 1426.82 962.777L1427.27 962.522L1429.59 961.186C1434.01 958.641 1436 959.707 1435.78 964.367L1435.78 964.366Z" fill="#FBFBFB"/>
<path d="M1320.27 431.038L1324.25 428.747L1321.93 395.596L1320.27 431.038Z" fill="#FAFAFA"/>
<path d="M1379.3 352.411C1378.08 353.11 1377.75 353.853 1377.75 355.955V410.67C1377.75 412.439 1378.19 412.847 1379.3 412.211C1380.4 411.575 1380.73 410.721 1380.73 408.842V354.348C1380.73 352.138 1380.4 351.775 1379.3 352.411Z" fill="#FAFAFA"/>
<path d="M1276.34 391.84V487.102L1441.72 393.759V298.496L1276.34 391.84ZM1306.9 460.84L1298.17 465.865L1293.53 431.618L1293.64 468.473L1286.12 472.799V399.072L1294.63 394.174L1299.83 433.741V391.185L1307.01 387.05L1306.9 460.84ZM1325.69 450.027L1324.7 436.34L1319.94 439.075L1319.17 453.779L1310.88 458.55L1315.74 382.024L1327.68 375.153L1334.2 445.128L1325.69 450.027ZM1353.77 367.879L1348.35 370.996V436.985L1340.39 441.566V375.576L1334.98 378.693V370.956L1353.77 360.141V367.879ZM1365.59 427.063L1357.52 431.707V357.979L1365.59 353.336V427.063ZM1388.25 404.737C1388.25 407.943 1387.81 409.966 1386.81 411.865C1385.16 415.03 1382.28 418.011 1378.97 419.918C1372.89 423.417 1370.01 421.755 1370.01 414.459V362.286C1370.01 353.885 1373 348.298 1379.3 344.673C1385.16 341.301 1388.25 343.058 1388.25 349.8V404.737ZM1413.45 399.52L1404.72 404.545L1400.08 370.298L1400.19 407.153L1392.67 411.479V337.751L1401.18 332.853L1406.38 372.42V329.863L1413.56 325.729L1413.45 399.52ZM1435.78 352.293V377.385C1435.78 383.687 1432.46 389.132 1426.49 392.567C1421.08 395.684 1417.54 394.293 1417.54 389.098V373.623L1425.39 369.106V382.813C1425.39 384.803 1425.61 385.006 1426.6 384.434C1427.71 383.798 1427.82 383.403 1427.82 381.413V360.411C1427.82 358.09 1427.6 357.886 1425.39 359.269L1423.62 360.287C1419.53 362.642 1416.99 361.673 1417.21 357.786V333.248C1417.21 326.616 1420.41 321.013 1426.38 317.577C1432.13 314.27 1435.67 315.992 1435.67 322.183V336.332L1427.82 340.848V327.141C1427.82 325.041 1427.6 324.726 1426.49 325.362C1425.61 325.871 1425.06 326.963 1425.28 327.609L1425.39 327.877V349.653L1425.28 349.937C1425.06 351.059 1425.72 351.451 1426.82 350.705L1427.27 350.45L1429.59 349.114C1434.01 346.569 1436 347.635 1435.78 352.294L1435.78 352.293Z" fill="#FAFAFA"/>
<path d="M1231.03 387.647C1229.79 386.946 1229.45 387.317 1229.45 389.455V445.157C1229.45 446.957 1229.9 447.888 1231.03 448.525C1232.15 449.162 1232.49 448.678 1232.49 446.765V391.288C1232.49 389.038 1232.15 388.284 1231.03 387.646V387.647Z" fill="#FAFAFA"/>
<path d="M1141.69 337.611L1141.01 337.229V365.923C1141.35 366.227 1141.69 366.418 1141.92 366.546C1143.04 367.184 1143.27 366.973 1143.27 365.173V340.866C1143.27 338.841 1143.04 338.376 1141.69 337.611Z" fill="#FAFAFA"/>
<path d="M1104.23 298.496V393.758L1269.61 487.101V391.839L1104.23 298.496ZM1129.2 346.853L1121.44 342.455V327.826C1121.44 326.026 1121.1 325.385 1119.97 324.747C1118.96 324.174 1118.62 324.546 1118.62 326.009V382.048C1118.62 384.073 1118.85 384.651 1119.97 385.288C1120.99 385.862 1121.32 385.602 1121.32 384.14V369.286L1129.09 373.684V388.763C1129.09 394.84 1125.49 396.401 1119.75 393.151C1114.23 390.028 1110.75 384.789 1110.75 379.725V322.448C1110.75 315.246 1113.78 313.366 1119.86 316.807C1125.38 319.93 1129.2 325.248 1129.2 329.974V346.854L1129.2 346.853ZM1151.37 410.495L1143.15 405.843V375.235C1143.15 374.785 1142.59 374.241 1141.69 373.732L1141.01 373.349V404.633L1132.91 400.045V324.988L1142.14 330.214C1147.77 333.288 1151.25 338.415 1151.14 343.414V368.396C1151.25 371.16 1149.79 373.483 1147.88 373.412C1150.47 376.228 1151.48 378.939 1151.37 382.476V410.495ZM1170.5 353.81L1164.08 350.178V376.172L1170.5 379.805V387.344L1164.08 383.712V409.931L1170.5 413.564V421.329L1155.75 412.979V337.923L1170.5 346.272V353.81ZM1189.29 431.971L1188.27 416.881L1183.44 414.141L1182.65 428.211L1174.21 423.431L1179.16 351.177L1191.31 358.061L1197.95 436.878L1189.29 431.971ZM1217.87 380.98L1212.35 377.857V445.037L1204.25 440.448V373.267L1198.74 370.144V362.268L1217.87 373.102V380.979V380.98ZM1240.15 451.324C1240.15 454.588 1239.7 456.134 1238.68 456.91C1237 458.205 1234.07 457.898 1230.69 455.987C1224.51 452.482 1221.58 447.449 1221.58 440.022V386.908C1221.58 378.355 1224.62 376.138 1231.03 379.77C1237 383.148 1240.15 388.533 1240.15 395.398V451.324ZM1263.1 473.777L1254.89 469.124V438.516C1254.89 438.067 1254.32 437.522 1253.42 437.013L1252.75 436.63V467.914L1244.65 463.326V388.269L1253.87 393.495C1259.5 396.57 1262.99 401.696 1262.88 406.696V431.677C1262.99 434.442 1261.52 436.764 1259.61 436.693C1262.2 439.509 1263.21 442.22 1263.1 445.758V473.778L1263.1 473.777Z" fill="#FAFAFA"/>
<path d="M1253.42 400.89L1252.75 400.508V429.203C1253.09 429.506 1253.42 429.698 1253.65 429.826C1254.77 430.463 1255 430.252 1255 428.452V404.145C1255 402.12 1254.77 401.655 1253.42 400.889L1253.42 400.89Z" fill="#FAFAFA"/>
<path d="M1183.77 406.342L1187.82 408.637L1185.46 372.189L1183.77 406.342Z" fill="#FAFAFA"/>
<path fill-rule="evenodd" clip-rule="evenodd" d="M1403.14 272.859V290.492C1403.14 305.794 1383.76 317.782 1359.03 317.782C1334.29 317.782 1314.92 305.794 1314.92 290.492V263.816L1284.24 281.134C1302.12 283.95 1315.3 293.359 1316.91 305.123C1317.01 305.448 1317.08 305.788 1317.08 306.149V334.725C1317.08 350.029 1297.71 362.017 1272.97 362.017C1248.23 362.017 1228.86 350.029 1228.86 334.725V306.149C1228.86 305.788 1228.93 305.448 1229.04 305.123C1230.64 293.36 1243.82 283.951 1261.7 281.134L1231.03 263.818V289.573C1231.03 304.876 1211.65 316.864 1186.91 316.864C1162.18 316.864 1142.8 304.876 1142.8 289.573V272.858L1107.71 292.668L1272.97 385.945L1438.23 292.668L1403.14 272.859Z" fill="#FAFAFA"/>
<path d="M1186.92 242.758C1166.65 242.758 1149.53 252.173 1149.53 263.319C1149.53 274.465 1166.65 283.882 1186.92 283.882C1207.18 283.882 1224.3 274.465 1224.3 263.319C1224.3 252.173 1207.18 242.758 1186.92 242.758Z" fill="#FAFAFA"/>
<path d="M1186.92 290.609C1170.98 290.609 1157.27 285.626 1149.53 277.99V289.57C1149.53 300.716 1166.65 310.132 1186.92 310.132C1207.18 310.132 1224.3 300.716 1224.3 289.57V277.99C1216.56 285.626 1202.85 290.609 1186.92 290.609Z" fill="#FAFAFA"/>
<path d="M1359.54 242.758C1339.27 242.758 1322.15 252.173 1322.15 263.319C1322.15 274.465 1339.27 283.882 1359.54 283.882C1379.8 283.882 1396.92 274.465 1396.92 263.319C1396.92 252.173 1379.8 242.758 1359.54 242.758Z" fill="#FAFAFA"/>
<path d="M1359.54 290.609C1343.6 290.609 1329.89 285.626 1322.15 277.99V289.57C1322.15 300.716 1339.27 310.132 1359.54 310.132C1379.8 310.132 1396.92 300.716 1396.92 289.57V277.99C1389.18 285.626 1375.48 290.609 1359.54 290.609Z" fill="#FAFAFA"/>
<path d="M1273.23 287.031C1252.96 287.031 1235.84 296.447 1235.84 307.593C1235.84 318.739 1252.96 328.155 1273.23 328.155C1293.49 328.155 1310.61 318.739 1310.61 307.593C1310.61 296.447 1293.49 287.031 1273.23 287.031Z" fill="#FAFAFA"/>
<path d="M1273.23 334.886C1257.29 334.886 1243.58 329.903 1235.84 322.268V333.847C1235.84 344.993 1252.96 354.41 1273.23 354.41C1293.49 354.41 1310.61 344.993 1310.61 333.847V322.268C1302.87 329.903 1289.17 334.886 1273.23 334.886Z" fill="#FAFAFA"/>
<path d="M1231.03 489.655C1229.79 488.954 1229.45 489.325 1229.45 491.463V547.164C1229.45 548.965 1229.9 549.895 1231.03 550.533C1232.15 551.17 1232.49 550.686 1232.49 548.773V493.296C1232.49 491.046 1232.15 490.292 1231.03 489.654V489.655Z" fill="#FBFBFB"/>
<path d="M1141.69 439.619L1141.01 439.236V467.931C1141.35 468.235 1141.69 468.426 1141.92 468.554C1143.04 469.191 1143.27 468.981 1143.27 467.18V442.874C1143.27 440.848 1143.04 440.384 1141.69 439.619Z" fill="#FBFBFB"/>
<path d="M1104.23 400.504V495.766L1269.61 589.109V493.847L1104.23 400.504ZM1129.2 448.861L1121.44 444.463V429.834C1121.44 428.034 1121.1 427.393 1119.97 426.755C1118.96 426.181 1118.62 426.553 1118.62 428.016V484.055C1118.62 486.081 1118.85 486.659 1119.97 487.296C1120.99 487.87 1121.32 487.61 1121.32 486.148V471.294L1129.09 475.691V490.771C1129.09 496.848 1125.49 498.409 1119.75 495.159C1114.23 492.036 1110.75 486.797 1110.75 481.733V424.456C1110.75 417.254 1113.78 415.374 1119.86 418.815C1125.38 421.938 1129.2 427.256 1129.2 431.982V448.861L1129.2 448.861ZM1151.37 512.503L1143.15 507.851V477.243C1143.15 476.793 1142.59 476.249 1141.69 475.74L1141.01 475.357V506.64L1132.91 502.052V426.996L1142.14 432.222C1147.77 435.296 1151.25 440.423 1151.14 445.422V470.404C1151.25 473.168 1149.79 475.491 1147.88 475.419C1150.47 478.236 1151.48 480.947 1151.37 484.484V512.503ZM1170.5 455.818L1164.08 452.186V478.18L1170.5 481.813V489.352L1164.08 485.719V511.939L1170.5 515.572V523.337L1155.75 514.987V439.93L1170.5 448.28V455.818ZM1189.29 533.979L1188.27 518.889L1183.44 516.148L1182.65 530.218L1174.21 525.439L1179.16 453.185L1191.31 460.069L1197.95 538.886L1189.29 533.979ZM1217.87 482.987L1212.35 479.864V547.045L1204.25 542.455V475.275L1198.74 472.152V464.275L1217.87 475.11V482.987V482.987ZM1240.15 553.332C1240.15 556.596 1239.7 558.141 1238.68 558.918C1237 560.213 1234.07 559.906 1230.69 557.994C1224.51 554.49 1221.58 549.456 1221.58 542.03V488.916C1221.58 480.363 1224.62 478.146 1231.03 481.778C1237 485.156 1240.15 490.541 1240.15 497.406V553.332ZM1263.1 575.785L1254.89 571.132V540.524C1254.89 540.074 1254.32 539.53 1253.42 539.021L1252.75 538.638V569.922L1244.65 565.334V490.277L1253.87 495.503C1259.5 498.577 1262.99 503.704 1262.88 508.703V533.685C1262.99 536.449 1261.52 538.772 1259.61 538.701C1262.2 541.517 1263.21 544.228 1263.1 547.765V575.785L1263.1 575.785Z" fill="#FBFBFB"/>
<path d="M1253.42 502.898L1252.75 502.516V531.21C1253.09 531.514 1253.42 531.706 1253.65 531.833C1254.77 532.471 1255 532.26 1255 530.46V506.153C1255 504.128 1254.77 503.662 1253.42 502.897L1253.42 502.898Z" fill="#FBFBFB"/>
<path d="M1183.77 508.35L1187.82 510.645L1185.46 474.197L1183.77 508.35Z" fill="#FBFBFB"/>
<path d="M1231.03 591.662C1229.79 590.962 1229.45 591.333 1229.45 593.471V649.172C1229.45 650.973 1229.9 651.903 1231.03 652.541C1232.15 653.178 1232.49 652.693 1232.49 650.78V595.304C1232.49 593.053 1232.15 592.3 1231.03 591.661V591.662Z" fill="#FBFBFB"/>
<path d="M1141.69 541.627L1141.01 541.244V569.939C1141.35 570.243 1141.69 570.434 1141.92 570.562C1143.04 571.199 1143.27 570.989 1143.27 569.188V544.882C1143.27 542.856 1143.04 542.392 1141.69 541.627Z" fill="#FBFBFB"/>
<path d="M1104.23 502.512V597.773L1269.61 691.116V595.855L1104.23 502.512ZM1129.2 550.868L1121.44 546.471V531.842C1121.44 530.041 1121.1 529.4 1119.97 528.763C1118.96 528.189 1118.62 528.561 1118.62 530.024V586.063C1118.62 588.089 1118.85 588.666 1119.97 589.304C1120.99 589.878 1121.32 589.618 1121.32 588.156V573.301L1129.09 577.699V592.779C1129.09 598.856 1125.49 600.417 1119.75 597.167C1114.23 594.044 1110.75 588.805 1110.75 583.741V526.464C1110.75 519.262 1113.78 517.382 1119.86 520.823C1125.38 523.946 1129.2 529.264 1129.2 533.989V550.869L1129.2 550.868ZM1151.37 614.511L1143.15 609.859V579.251C1143.15 578.801 1142.59 578.257 1141.69 577.747L1141.01 577.365V608.648L1132.91 604.06V529.003L1142.14 534.23C1147.77 537.304 1151.25 542.43 1151.14 547.43V572.411C1151.25 575.176 1149.79 577.498 1147.88 577.427C1150.47 580.244 1151.48 582.955 1151.37 586.492V614.511ZM1170.5 557.826L1164.08 554.193V580.188L1170.5 583.821V591.36L1164.08 587.727V613.947L1170.5 617.579V625.345L1155.75 616.995V541.938L1170.5 550.288V557.826ZM1189.29 635.987L1188.27 620.897L1183.44 618.156L1182.65 632.226L1174.21 627.447L1179.16 555.193L1191.31 562.077L1197.95 640.894L1189.29 635.987ZM1217.87 584.995L1212.35 581.872V649.052L1204.25 644.463V577.283L1198.74 574.16V566.283L1217.87 577.118V584.994V584.995ZM1240.15 655.34C1240.15 658.604 1239.7 660.149 1238.68 660.926C1237 662.221 1234.07 661.914 1230.69 660.002C1224.51 656.497 1221.58 651.464 1221.58 644.037V590.923C1221.58 582.371 1224.62 580.153 1231.03 583.786C1237 587.164 1240.15 592.549 1240.15 599.413V655.34ZM1263.1 677.792L1254.89 673.14V642.532C1254.89 642.082 1254.32 641.538 1253.42 641.029L1252.75 640.646V671.93L1244.65 667.341V592.285L1253.87 597.511C1259.5 600.585 1262.99 605.712 1262.88 610.711V635.693C1262.99 638.457 1261.52 640.78 1259.61 640.709C1262.2 643.525 1263.21 646.236 1263.1 649.773V677.793L1263.1 677.792Z" fill="#FBFBFB"/>
<path d="M1253.42 604.906L1252.75 604.523V633.218C1253.09 633.522 1253.42 633.713 1253.65 633.841C1254.77 634.478 1255 634.268 1255 632.468V608.161C1255 606.135 1254.77 605.67 1253.42 604.905L1253.42 604.906Z" fill="#FBFBFB"/>
<path d="M1183.77 610.358L1187.82 612.653L1185.46 576.205L1183.77 610.358Z" fill="#FBFBFB"/>
<path d="M1231.03 693.678C1229.79 692.977 1229.45 693.348 1229.45 695.486V751.188C1229.45 752.988 1229.9 753.919 1231.03 754.556C1232.15 755.193 1232.49 754.709 1232.49 752.796V697.319C1232.49 695.069 1232.15 694.315 1231.03 693.677V693.678Z" fill="#FBFBFB"/>
<path d="M1141.69 643.642L1141.01 643.26V671.955C1141.35 672.258 1141.69 672.45 1141.92 672.578C1143.04 673.215 1143.27 673.004 1143.27 671.204V646.897C1143.27 644.872 1143.04 644.408 1141.69 643.642Z" fill="#FBFBFB"/>
<path d="M1104.23 604.527V699.789L1269.61 793.132V697.87L1104.23 604.527ZM1129.2 652.884L1121.44 648.486V633.858C1121.44 632.057 1121.1 631.416 1119.97 630.779C1118.96 630.205 1118.62 630.577 1118.62 632.04V688.079C1118.62 690.104 1118.85 690.682 1119.97 691.319C1120.99 691.893 1121.32 691.634 1121.32 690.172V675.317L1129.09 679.715V694.794C1129.09 700.871 1125.49 702.433 1119.75 699.183C1114.23 696.059 1110.75 690.82 1110.75 685.756V628.479C1110.75 621.277 1113.78 619.397 1119.86 622.839C1125.38 625.962 1129.2 631.279 1129.2 636.005V652.885L1129.2 652.884ZM1151.37 716.527L1143.15 711.874V681.266C1143.15 680.817 1142.59 680.272 1141.69 679.763L1141.01 679.38V710.664L1132.91 706.076V631.019L1142.14 636.245C1147.77 639.319 1151.25 644.446 1151.14 649.446V674.427C1151.25 677.192 1149.79 679.514 1147.88 679.443C1150.47 682.259 1151.48 684.97 1151.37 688.508V716.527ZM1170.5 659.842L1164.08 656.209V682.204L1170.5 685.836V693.375L1164.08 689.743V715.962L1170.5 719.595V727.36L1155.75 719.011V643.954L1170.5 652.303V659.842ZM1189.29 738.002L1188.27 722.912L1183.44 720.172L1182.65 734.242L1174.21 729.462L1179.16 657.209L1191.31 664.092L1197.95 742.91L1189.29 738.002ZM1217.87 687.011L1212.35 683.888V751.068L1204.25 746.479V679.299L1198.74 676.176V668.299L1217.87 679.133V687.01V687.011ZM1240.15 757.356C1240.15 760.619 1239.7 762.165 1238.68 762.942C1237 764.236 1234.07 763.93 1230.69 762.018C1224.51 758.513 1221.58 753.48 1221.58 746.053V692.939C1221.58 684.387 1224.62 682.169 1231.03 685.802C1237 689.18 1240.15 694.565 1240.15 701.429V757.356ZM1263.1 779.808L1254.89 775.155V744.548C1254.89 744.098 1254.32 743.554 1253.42 743.044L1252.75 742.662V773.945L1244.65 769.357V694.3L1253.87 699.527C1259.5 702.601 1262.99 707.727 1262.88 712.727V737.708C1262.99 740.473 1261.52 742.795 1259.61 742.724C1262.2 745.541 1263.21 748.251 1263.1 751.789V779.809L1263.1 779.808Z" fill="#FBFBFB"/>
<path d="M1253.42 706.922L1252.75 706.539V735.234C1253.09 735.538 1253.42 735.729 1253.65 735.857C1254.77 736.494 1255 736.284 1255 734.483V710.176C1255 708.151 1254.77 707.686 1253.42 706.921L1253.42 706.922Z" fill="#FBFBFB"/>
<path d="M1183.77 712.374L1187.82 714.668L1185.46 678.221L1183.77 712.374Z" fill="#FBFBFB"/>
<path d="M1231.03 795.696C1229.79 794.995 1229.45 795.366 1229.45 797.504V853.205C1229.45 855.006 1229.9 855.936 1231.03 856.574C1232.15 857.211 1232.49 856.727 1232.49 854.814V799.337C1232.49 797.087 1232.15 796.333 1231.03 795.695V795.696Z" fill="#FBFBFB"/>
<path d="M1141.69 745.66L1141.01 745.277V773.972C1141.35 774.276 1141.69 774.467 1141.92 774.595C1143.04 775.232 1143.27 775.022 1143.27 773.221V748.915C1143.27 746.889 1143.04 746.425 1141.69 745.66Z" fill="#FBFBFB"/>
<path d="M1104.23 706.545V801.807L1269.61 895.15V799.888L1104.23 706.545ZM1129.2 754.902L1121.44 750.504V735.875C1121.44 734.075 1121.1 733.434 1119.97 732.796C1118.96 732.222 1118.62 732.594 1118.62 734.057V790.096C1118.62 792.122 1118.85 792.7 1119.97 793.337C1120.99 793.911 1121.32 793.651 1121.32 792.189V777.335L1129.09 781.732V796.812C1129.09 802.889 1125.49 804.45 1119.75 801.2C1114.23 798.077 1110.75 792.838 1110.75 787.774V730.497C1110.75 723.295 1113.78 721.415 1119.86 724.856C1125.38 727.979 1129.2 733.297 1129.2 738.023V754.903L1129.2 754.902ZM1151.37 818.544L1143.15 813.892V783.284C1143.15 782.834 1142.59 782.29 1141.69 781.781L1141.01 781.398V812.681L1132.91 808.093V733.037L1142.14 738.263C1147.77 741.337 1151.25 746.464 1151.14 751.463V776.445C1151.25 779.209 1149.79 781.532 1147.88 781.46C1150.47 784.277 1151.48 786.988 1151.37 790.525V818.544ZM1170.5 761.859L1164.08 758.227V784.221L1170.5 787.854V795.393L1164.08 791.76V817.98L1170.5 821.613V829.378L1155.75 821.028V745.971L1170.5 754.321V761.859ZM1189.29 840.02L1188.27 824.93L1183.44 822.189L1182.65 836.259L1174.21 831.48L1179.16 759.226L1191.31 766.11L1197.95 844.927L1189.29 840.02ZM1217.87 789.029L1212.35 785.905V853.086L1204.25 848.496V781.316L1198.74 778.193V770.316L1217.87 781.151V789.028V789.029ZM1240.15 859.373C1240.15 862.637 1239.7 864.182 1238.68 864.959C1237 866.254 1234.07 865.947 1230.69 864.035C1224.51 860.531 1221.58 855.497 1221.58 848.071V794.957C1221.58 786.404 1224.62 784.187 1231.03 787.819C1237 791.197 1240.15 796.582 1240.15 803.447V859.373ZM1263.1 881.826L1254.89 877.173V846.565C1254.89 846.115 1254.32 845.571 1253.42 845.062L1252.75 844.679V875.963L1244.65 871.375V796.318L1253.87 801.544C1259.5 804.618 1262.99 809.745 1262.88 814.744V839.726C1262.99 842.49 1261.52 844.813 1259.61 844.742C1262.2 847.558 1263.21 850.269 1263.1 853.806V881.827L1263.1 881.826Z" fill="#FBFBFB"/>
<path d="M1253.42 808.939L1252.75 808.557V837.251C1253.09 837.555 1253.42 837.747 1253.65 837.874C1254.77 838.512 1255 838.301 1255 836.501V812.194C1255 810.169 1254.77 809.703 1253.42 808.938L1253.42 808.939Z" fill="#FBFBFB"/>
<path d="M1183.77 814.391L1187.82 816.686L1185.46 780.238L1183.77 814.391Z" fill="#FBFBFB"/>
<path d="M1231.03 897.707C1229.79 897.007 1229.45 897.378 1229.45 899.515V955.217C1229.45 957.018 1229.9 957.948 1231.03 958.585C1232.15 959.223 1232.49 958.738 1232.49 956.825V901.349C1232.49 899.098 1232.15 898.345 1231.03 897.706V897.707Z" fill="#FBFBFB"/>
<path d="M1141.69 847.672L1141.01 847.289V875.984C1141.35 876.288 1141.69 876.479 1141.92 876.607C1143.04 877.244 1143.27 877.034 1143.27 875.233V850.927C1143.27 848.901 1143.04 848.437 1141.69 847.672Z" fill="#FBFBFB"/>
<path d="M1104.23 808.557V903.818L1269.61 997.161V901.9L1104.23 808.557ZM1129.2 856.913L1121.44 852.515V837.887C1121.44 836.086 1121.1 835.445 1119.97 834.808C1118.96 834.234 1118.62 834.606 1118.62 836.069V892.108C1118.62 894.134 1118.85 894.711 1119.97 895.349C1120.99 895.923 1121.32 895.663 1121.32 894.201V879.346L1129.09 883.744V898.824C1129.09 904.901 1125.49 906.462 1119.75 903.212C1114.23 900.089 1110.75 894.85 1110.75 889.786V832.509C1110.75 825.307 1113.78 823.427 1119.86 826.868C1125.38 829.991 1129.2 835.309 1129.2 840.034V856.914L1129.2 856.913ZM1151.37 920.556L1143.15 915.903V885.296C1143.15 884.846 1142.59 884.302 1141.69 883.792L1141.01 883.41V914.693L1132.91 910.105V835.048L1142.14 840.275C1147.77 843.349 1151.25 848.475 1151.14 853.475V878.456C1151.25 881.221 1149.79 883.543 1147.88 883.472C1150.47 886.289 1151.48 888.999 1151.37 892.537V920.556ZM1170.5 863.871L1164.08 860.238V886.233L1170.5 889.866V897.405L1164.08 893.772V919.992L1170.5 923.624V931.389L1155.75 923.04V847.983L1170.5 856.333V863.871ZM1189.29 942.032L1188.27 926.942L1183.44 924.201L1182.65 938.271L1174.21 933.492L1179.16 861.238L1191.31 868.122L1197.95 946.939L1189.29 942.032ZM1217.87 891.04L1212.35 887.917V955.097L1204.25 950.508V883.328L1198.74 880.205V872.328L1217.87 883.163V891.039V891.04ZM1240.15 961.385C1240.15 964.648 1239.7 966.194 1238.68 966.971C1237 968.266 1234.07 967.959 1230.69 966.047C1224.51 962.542 1221.58 957.509 1221.58 950.082V896.968C1221.58 888.416 1224.62 886.198 1231.03 889.831C1237 893.209 1240.15 898.594 1240.15 905.458V961.385ZM1263.1 983.837L1254.89 979.185V948.577C1254.89 948.127 1254.32 947.583 1253.42 947.074L1252.75 946.691V977.974L1244.65 973.386V898.33L1253.87 903.556C1259.5 906.63 1262.99 911.757 1262.88 916.756V941.738C1262.99 944.502 1261.52 946.825 1259.61 946.753C1262.2 949.57 1263.21 952.281 1263.1 955.818V983.838L1263.1 983.837Z" fill="#FBFBFB"/>
<path d="M1253.42 910.951L1252.75 910.568V939.263C1253.09 939.567 1253.42 939.758 1253.65 939.886C1254.77 940.523 1255 940.313 1255 938.512V914.206C1255 912.18 1254.77 911.715 1253.42 910.95L1253.42 910.951Z" fill="#FBFBFB"/>
<path d="M1183.77 916.403L1187.82 918.697L1185.46 882.25L1183.77 916.403Z" fill="#FBFBFB"/>
<path d="M1231.03 999.719C1229.79 999.018 1229.45 999.389 1229.45 1001.53V1057.23C1229.45 1059.03 1229.9 1059.96 1231.03 1060.6C1232.15 1061.23 1232.49 1060.75 1232.49 1058.84V1003.36C1232.49 1001.11 1232.15 1000.36 1231.03 999.718V999.719Z" fill="#FBFBFB"/>
<path d="M1141.69 949.683L1141.01 949.301V977.996C1141.35 978.299 1141.69 978.491 1141.92 978.619C1143.04 979.256 1143.27 979.045 1143.27 977.245V952.938C1143.27 950.913 1143.04 950.449 1141.69 949.683Z" fill="#FBFBFB"/>
<path d="M1104.23 910.568V1005.83L1269.61 1099.17V1003.91L1104.23 910.568ZM1129.2 958.925L1121.44 954.527V939.899C1121.44 938.098 1121.1 937.457 1119.97 936.82C1118.96 936.246 1118.62 936.618 1118.62 938.081V994.12C1118.62 996.145 1118.85 996.723 1119.97 997.36C1120.99 997.934 1121.32 997.675 1121.32 996.213V981.358L1129.09 985.756V1000.84C1129.09 1006.91 1125.49 1008.47 1119.75 1005.22C1114.23 1002.1 1110.75 996.861 1110.75 991.797V934.52C1110.75 927.318 1113.78 925.438 1119.86 928.88C1125.38 932.003 1129.2 937.32 1129.2 942.046V958.926L1129.2 958.925ZM1151.37 1022.57L1143.15 1017.92V987.307C1143.15 986.858 1142.59 986.313 1141.69 985.804L1141.01 985.421V1016.7L1132.91 1012.12V937.06L1142.14 942.286C1147.77 945.361 1151.25 950.487 1151.14 955.487V980.468C1151.25 983.233 1149.79 985.555 1147.88 985.484C1150.47 988.3 1151.48 991.011 1151.37 994.549V1022.57ZM1170.5 965.883L1164.08 962.25V988.245L1170.5 991.877V999.417L1164.08 995.784V1022L1170.5 1025.64V1033.4L1155.75 1025.05V949.995L1170.5 958.344V965.883ZM1189.29 1044.04L1188.27 1028.95L1183.44 1026.21L1182.65 1040.28L1174.21 1035.5L1179.16 963.25L1191.31 970.133L1197.95 1048.95L1189.29 1044.04ZM1217.87 993.052L1212.35 989.929V1057.11L1204.25 1052.52V985.34L1198.74 982.217V974.34L1217.87 985.174V993.051V993.052ZM1240.15 1063.4C1240.15 1066.66 1239.7 1068.21 1238.68 1068.98C1237 1070.28 1234.07 1069.97 1230.69 1068.06C1224.51 1064.55 1221.58 1059.52 1221.58 1052.09V998.98C1221.58 990.428 1224.62 988.21 1231.03 991.843C1237 995.221 1240.15 1000.61 1240.15 1007.47V1063.4ZM1263.1 1085.85L1254.89 1081.2V1050.59C1254.89 1050.14 1254.32 1049.59 1253.42 1049.09L1252.75 1048.7V1079.99L1244.65 1075.4V1000.34L1253.87 1005.57C1259.5 1008.64 1262.99 1013.77 1262.88 1018.77V1043.75C1262.99 1046.51 1261.52 1048.84 1259.61 1048.77C1262.2 1051.58 1263.21 1054.29 1263.1 1057.83V1085.85L1263.1 1085.85Z" fill="#FBFBFB"/>
<path d="M1183.77 1018.41L1187.82 1020.71L1185.46 984.262L1183.77 1018.41Z" fill="#FBFBFB"/>
<path d="M1150.09 240.299V218.259L1182.85 236.934C1176.8 237.009 1165.7 238.592 1156.6 244.014C1147.51 249.435 1141.65 257.694 1142.3 265.685L1103.67 287.2V267.546C1104.44 267.569 1105.21 267.581 1105.99 267.581C1130.72 267.581 1150.09 255.597 1150.09 240.299Z" fill="#FBFBFB"/>
<path d="M1105.99 241.341C1105.21 241.341 1104.44 241.319 1103.67 241.295V260.811C1104.44 260.838 1105.21 260.857 1105.99 260.857C1126.25 260.857 1143.36 251.445 1143.36 240.302V228.709C1135.63 236.349 1121.94 241.341 1105.99 241.341Z" fill="#FBFBFB"/>
<path d="M1105.99 193.693C1105.21 193.693 1104.44 193.713 1103.67 193.739V234.757C1104.44 234.784 1105.21 234.804 1105.99 234.804C1126.25 234.804 1143.36 225.391 1143.36 214.249C1143.36 203.107 1126.25 193.693 1105.99 193.693Z" fill="#FBFBFB"/>
<path d="M1739.58 443.199V421.16L1706.82 439.834C1712.87 439.909 1723.97 441.492 1733.06 446.914C1742.16 452.336 1748.01 460.594 1747.37 468.585L1786 490.1V470.446C1785.23 470.469 1784.45 470.482 1783.68 470.482C1758.95 470.482 1739.58 458.498 1739.58 443.199Z" fill="#FBFBFB"/>
<path d="M1783.68 444.241C1784.46 444.241 1785.23 444.22 1786 444.196V463.712C1785.23 463.739 1784.45 463.758 1783.68 463.758C1763.42 463.758 1746.31 454.345 1746.31 443.202V431.609C1754.04 439.25 1767.73 444.241 1783.68 444.241Z" fill="#FBFBFB"/>
<path d="M1783.68 396.594C1784.45 396.594 1785.23 396.613 1786 396.64V437.658C1785.23 437.685 1784.45 437.704 1783.68 437.704C1763.42 437.704 1746.31 428.291 1746.31 417.149C1746.31 406.007 1763.42 396.594 1783.68 396.594Z" fill="#FBFBFB"/>
<path fill-rule="evenodd" clip-rule="evenodd" d="M1747.42 476.789V494.421C1747.42 509.724 1728.05 521.712 1703.31 521.712C1678.58 521.712 1659.2 509.724 1659.2 494.421V467.746L1628.52 485.063C1646.41 487.88 1659.58 497.289 1661.19 509.053C1661.3 509.378 1661.37 509.718 1661.37 510.078V538.655C1661.37 553.958 1641.99 565.946 1617.26 565.946C1592.52 565.946 1573.14 553.958 1573.14 538.655V510.078C1573.14 509.718 1573.22 509.378 1573.32 509.053C1574.93 497.29 1588.1 487.881 1605.99 485.063L1575.31 467.748V493.502C1575.31 508.806 1555.94 520.794 1531.2 520.794C1506.46 520.794 1487.09 508.806 1487.09 493.502V476.788L1451.99 496.598L1617.26 589.874L1782.52 496.598L1747.42 476.789Z" fill="#FBFBFB"/>
<path d="M1531.2 446.688C1510.93 446.688 1493.81 456.103 1493.81 467.249C1493.81 478.395 1510.93 487.812 1531.2 487.812C1551.46 487.812 1568.58 478.395 1568.58 467.249C1568.58 456.103 1551.46 446.688 1531.2 446.688Z" fill="#FBFBFB"/>
<path d="M1531.2 494.538C1515.26 494.538 1501.55 489.555 1493.81 481.92V493.499C1493.81 504.645 1510.93 514.062 1531.2 514.062C1551.46 514.062 1568.58 504.645 1568.58 493.499V481.92C1560.84 489.555 1547.14 494.538 1531.2 494.538Z" fill="#FBFBFB"/>
<path d="M1703.82 446.688C1683.55 446.688 1666.44 456.103 1666.44 467.249C1666.44 478.395 1683.55 487.812 1703.82 487.812C1724.08 487.812 1741.2 478.395 1741.2 467.249C1741.2 456.103 1724.08 446.688 1703.82 446.688Z" fill="#FBFBFB"/>
<path d="M1703.82 494.538C1687.88 494.538 1674.17 489.555 1666.44 481.92V493.499C1666.44 504.645 1683.55 514.062 1703.82 514.062C1724.08 514.062 1741.2 504.645 1741.2 493.499V481.92C1733.46 489.555 1719.76 494.538 1703.82 494.538Z" fill="#FBFBFB"/>
<path d="M1617.51 490.961C1597.24 490.961 1580.12 500.377 1580.12 511.522C1580.12 522.668 1597.24 532.085 1617.51 532.085C1637.77 532.085 1654.89 522.668 1654.89 511.522C1654.89 500.377 1637.77 490.961 1617.51 490.961Z" fill="#FBFBFB"/>
<path d="M1617.51 538.816C1601.57 538.816 1587.86 533.833 1580.12 526.197V537.777C1580.12 548.923 1597.24 558.339 1617.51 558.339C1637.77 558.339 1654.89 548.923 1654.89 537.777V526.197C1647.15 533.833 1633.45 538.816 1617.51 538.816Z" fill="#FBFBFB"/>
<path d="M1664.56 634.962L1668.54 632.671L1666.22 599.52L1664.56 634.962Z" fill="#FBFBFB"/>
<path d="M1723.58 556.334C1722.37 557.034 1722.04 557.777 1722.04 559.879V614.594C1722.04 616.363 1722.48 616.771 1723.58 616.135C1724.69 615.499 1725.02 614.645 1725.02 612.766V558.272C1725.02 556.061 1724.69 555.699 1723.58 556.334Z" fill="#FBFBFB"/>
<path d="M1620.62 595.764V691.026L1786 597.683V502.42L1620.62 595.764ZM1651.18 664.764L1642.45 669.789L1637.81 635.542L1637.92 672.397L1630.4 676.723V602.996L1638.91 598.098L1644.11 637.665V595.108L1651.29 590.974L1651.18 664.764ZM1669.97 653.95L1668.98 640.264L1664.22 642.999L1663.45 657.703L1655.16 662.474L1660.02 585.947L1671.96 579.077L1678.48 649.052L1669.97 653.95ZM1698.05 571.802L1692.63 574.92V640.909L1684.67 645.489V579.5L1679.26 582.617V574.879L1698.05 564.065V571.802ZM1709.87 630.987L1701.8 635.631V561.903L1709.87 557.259V630.987ZM1732.53 608.661C1732.53 611.867 1732.09 613.89 1731.09 615.789C1729.44 618.954 1726.56 621.934 1723.25 623.842C1717.17 627.341 1714.29 625.679 1714.29 618.383V566.21C1714.29 557.809 1717.28 552.222 1723.58 548.596C1729.44 545.225 1732.53 546.981 1732.53 553.724V608.661ZM1757.73 603.444L1749 608.469L1744.36 574.222L1744.47 611.077L1736.95 615.403V541.675L1745.46 536.777L1750.66 576.343V533.787L1757.84 529.653L1757.73 603.444ZM1780.06 556.217V581.309C1780.06 587.61 1776.74 593.056 1770.77 596.491C1765.36 599.608 1761.82 598.217 1761.82 593.021V577.547L1769.67 573.03V586.737C1769.67 588.726 1769.89 588.93 1770.88 588.358C1771.99 587.722 1772.1 587.327 1772.1 585.337V564.335C1772.1 562.014 1771.88 561.81 1769.67 563.193L1767.9 564.211C1763.81 566.565 1761.27 565.596 1761.49 561.71V537.172C1761.49 530.54 1764.69 524.937 1770.66 521.501C1776.41 518.193 1779.95 519.916 1779.95 526.107V540.255L1772.1 544.771V531.065C1772.1 528.964 1771.88 528.65 1770.77 529.285C1769.89 529.795 1769.34 530.887 1769.56 531.533L1769.67 531.801V553.577L1769.56 553.861C1769.34 554.983 1770 555.375 1771.1 554.628L1771.55 554.374L1773.87 553.037C1778.29 550.493 1780.28 551.559 1780.06 556.218L1780.06 556.217Z" fill="#FBFBFB"/>
<path d="M1664.56 736.971L1668.54 734.681L1666.22 701.529L1664.56 736.971Z" fill="#FBFBFB"/>
<path d="M1723.58 658.344C1722.37 659.044 1722.04 659.787 1722.04 661.888V716.604C1722.04 718.372 1722.48 718.781 1723.58 718.145C1724.69 717.508 1725.02 716.655 1725.02 714.775V660.282C1725.02 658.071 1724.69 657.709 1723.58 658.344Z" fill="#FBFBFB"/>
<path d="M1620.62 697.774V793.035L1786 699.692V604.43L1620.62 697.774ZM1651.18 766.774L1642.45 771.799L1637.81 737.552L1637.92 774.407L1630.4 778.733V705.005L1638.91 700.108L1644.11 739.674V697.118L1651.29 692.984L1651.18 766.774ZM1669.97 755.96L1668.98 742.274L1664.22 745.008L1663.45 759.713L1655.16 764.484L1660.02 687.957L1671.96 681.087L1678.48 751.062L1669.97 755.96ZM1698.05 673.812L1692.63 676.93V742.919L1684.67 747.499V681.51L1679.26 684.626V676.889L1698.05 666.075V673.812ZM1709.87 732.997L1701.8 737.64V663.913L1709.87 659.269V732.997ZM1732.53 710.671C1732.53 713.877 1732.09 715.899 1731.09 717.799C1729.44 720.963 1726.56 723.944 1723.25 725.851C1717.17 729.35 1714.29 727.688 1714.29 720.392V668.219C1714.29 659.819 1717.28 654.232 1723.58 650.606C1729.44 647.235 1732.53 648.991 1732.53 655.734V710.671ZM1757.73 705.453L1749 710.479L1744.36 676.232L1744.47 713.087L1736.95 717.412V643.685L1745.46 638.786L1750.66 678.353V635.797L1757.84 631.662L1757.73 705.453ZM1780.06 658.227V683.319C1780.06 689.62 1776.74 695.066 1770.77 698.5C1765.36 701.618 1761.82 700.227 1761.82 695.031V679.557L1769.67 675.04V688.746C1769.67 690.736 1769.89 690.94 1770.88 690.368C1771.99 689.732 1772.1 689.337 1772.1 687.347V666.345C1772.1 664.024 1771.88 663.82 1769.67 665.203L1767.9 666.221C1763.81 668.575 1761.27 667.606 1761.49 663.72V639.181C1761.49 632.55 1764.69 626.946 1770.66 623.511C1776.41 620.203 1779.95 621.926 1779.95 628.116V642.265L1772.1 646.781V633.075C1772.1 630.974 1771.88 630.66 1770.77 631.295C1769.89 631.805 1769.34 632.897 1769.56 633.543L1769.67 633.811V655.586L1769.56 655.871C1769.34 656.993 1770 657.385 1771.1 656.638L1771.55 656.383L1773.87 655.047C1778.29 652.503 1780.28 653.569 1780.06 658.228L1780.06 658.227Z" fill="#FBFBFB"/>
<path d="M1664.56 838.981L1668.54 836.69L1666.22 803.539L1664.56 838.981Z" fill="#FBFBFB"/>
<path d="M1723.58 760.354C1722.37 761.054 1722.04 761.797 1722.04 763.898V818.614C1722.04 820.382 1722.48 820.791 1723.58 820.154C1724.69 819.518 1725.02 818.664 1725.02 816.785V762.292C1725.02 760.081 1724.69 759.718 1723.58 760.354Z" fill="#FBFBFB"/>
<path d="M1620.62 799.783V895.045L1786 801.702V706.439L1620.62 799.783ZM1651.18 868.783L1642.45 873.809L1637.81 839.562L1637.92 876.417L1630.4 880.742V807.015L1638.91 802.117L1644.11 841.684V799.128L1651.29 794.993L1651.18 868.783ZM1669.97 857.97L1668.98 844.283L1664.22 847.018L1663.45 861.723L1655.16 866.494L1660.02 789.967L1671.96 783.097L1678.48 853.071L1669.97 857.97ZM1698.05 775.822L1692.63 778.939V844.928L1684.67 849.509V783.52L1679.26 786.636V778.899L1698.05 768.085V775.822ZM1709.87 835.006L1701.8 839.65V765.923L1709.87 761.279V835.006ZM1732.53 812.681C1732.53 815.887 1732.09 817.909 1731.09 819.809C1729.44 822.973 1726.56 825.954 1723.25 827.861C1717.17 831.36 1714.29 829.698 1714.29 822.402V770.229C1714.29 761.829 1717.28 756.242 1723.58 752.616C1729.44 749.245 1732.53 751.001 1732.53 757.743V812.681ZM1757.73 807.463L1749 812.489L1744.36 778.241L1744.47 815.096L1736.95 819.422V745.695L1745.46 740.796L1750.66 780.363V737.807L1757.84 733.672L1757.73 807.463ZM1780.06 760.237V785.329C1780.06 791.63 1776.74 797.076 1770.77 800.51C1765.36 803.628 1761.82 802.237 1761.82 797.041V781.566L1769.67 777.049V790.756C1769.67 792.746 1769.89 792.95 1770.88 792.378C1771.99 791.741 1772.1 791.346 1772.1 789.357V768.355C1772.1 766.033 1771.88 765.83 1769.67 767.213L1767.9 768.231C1763.81 770.585 1761.27 769.616 1761.49 765.73V741.191C1761.49 734.559 1764.69 728.956 1770.66 725.521C1776.41 722.213 1779.95 723.935 1779.95 730.126V744.275L1772.1 748.791V735.084C1772.1 732.984 1771.88 732.67 1770.77 733.305C1769.89 733.814 1769.34 734.906 1769.56 735.552L1769.67 735.821V757.596L1769.56 757.881C1769.34 759.003 1770 759.395 1771.1 758.648L1771.55 758.393L1773.87 757.057C1778.29 754.513 1780.28 755.579 1780.06 760.238L1780.06 760.237Z" fill="#FBFBFB"/>
<path d="M1664.56 940.995L1668.54 938.704L1666.22 905.553L1664.56 940.995Z" fill="#FBFBFB"/>
<path d="M1723.58 862.368C1722.37 863.067 1722.04 863.81 1722.04 865.912V920.627C1722.04 922.396 1722.48 922.804 1723.58 922.168C1724.69 921.532 1725.02 920.678 1725.02 918.799V864.305C1725.02 862.095 1724.69 861.732 1723.58 862.368Z" fill="#FBFBFB"/>
<path d="M1620.62 901.797V997.059L1786 903.716V808.453L1620.62 901.797ZM1651.18 970.797L1642.45 975.823L1637.81 941.575L1637.92 978.43L1630.4 982.756V909.029L1638.91 904.131L1644.11 943.698V901.142L1651.29 897.007L1651.18 970.797ZM1669.97 959.984L1668.98 946.297L1664.22 949.032L1663.45 963.736L1655.16 968.507L1660.02 891.981L1671.96 885.11L1678.48 955.085L1669.97 959.984ZM1698.05 877.836L1692.63 880.953V946.942L1684.67 951.523V885.533L1679.26 888.65V880.913L1698.05 870.098V877.836ZM1709.87 937.02L1701.8 941.664V867.936L1709.87 863.293V937.02ZM1732.53 914.694C1732.53 917.9 1732.09 919.923 1731.09 921.822C1729.44 924.987 1726.56 927.968 1723.25 929.875C1717.17 933.374 1714.29 931.712 1714.29 924.416V872.243C1714.29 863.842 1717.28 858.255 1723.58 854.63C1729.44 851.258 1732.53 853.015 1732.53 859.757V914.694ZM1757.73 909.477L1749 914.502L1744.36 880.255L1744.47 917.11L1736.95 921.436V847.708L1745.46 842.81L1750.66 882.377V839.82L1757.84 835.686L1757.73 909.477ZM1780.06 862.251V887.343C1780.06 893.644 1776.74 899.089 1770.77 902.524C1765.36 905.641 1761.82 904.25 1761.82 899.055V883.58L1769.67 879.063V892.77C1769.67 894.76 1769.89 894.963 1770.88 894.392C1771.99 893.755 1772.1 893.36 1772.1 891.37V870.368C1772.1 868.047 1771.88 867.843 1769.67 869.226L1767.9 870.244C1763.81 872.599 1761.27 871.63 1761.49 867.743V843.205C1761.49 836.573 1764.69 830.97 1770.66 827.534C1776.41 824.227 1779.95 825.949 1779.95 832.14V846.289L1772.1 850.805V837.098C1772.1 834.998 1771.88 834.683 1770.77 835.319C1769.89 835.828 1769.34 836.92 1769.56 837.566L1769.67 837.834V859.61L1769.56 859.894C1769.34 861.016 1770 861.408 1771.1 860.662L1771.55 860.407L1773.87 859.071C1778.29 856.526 1780.28 857.592 1780.06 862.251L1780.06 862.251Z" fill="#FBFBFB"/>
<path d="M1723.58 964.385C1722.37 965.085 1722.04 965.828 1722.04 967.929V1022.64C1722.04 1024.41 1722.48 1024.82 1723.58 1024.19C1724.69 1023.55 1725.02 1022.7 1725.02 1020.82V966.323C1725.02 964.112 1724.69 963.75 1723.58 964.385Z" fill="#FBFBFB"/>
<path d="M1620.62 1003.81V1099.08L1786 1005.73V910.471L1620.62 1003.81ZM1651.18 1072.81L1642.45 1077.84L1637.81 1043.59L1637.92 1080.45L1630.4 1084.77V1011.05L1638.91 1006.15L1644.11 1045.72V1003.16L1651.29 999.025L1651.18 1072.81ZM1669.97 1062L1668.98 1048.31L1664.22 1051.05L1663.45 1065.75L1655.16 1070.52L1660.02 993.998L1671.96 987.128L1678.48 1057.1L1669.97 1062ZM1698.05 979.853L1692.63 982.971V1048.96L1684.67 1053.54V987.551L1679.26 990.667V982.93L1698.05 972.116V979.853ZM1709.87 1039.04L1701.8 1043.68V969.954L1709.87 965.31V1039.04ZM1732.53 1016.71C1732.53 1019.92 1732.09 1021.94 1731.09 1023.84C1729.44 1027 1726.56 1029.99 1723.25 1031.89C1717.17 1035.39 1714.29 1033.73 1714.29 1026.43V974.26C1714.29 965.86 1717.28 960.273 1723.58 956.647C1729.44 953.276 1732.53 955.032 1732.53 961.775V1016.71ZM1757.73 1011.49L1749 1016.52L1744.36 982.273L1744.47 1019.13L1736.95 1023.45V949.726L1745.46 944.827L1750.66 984.394V941.838L1757.84 937.703L1757.73 1011.49ZM1780.06 964.268V989.36C1780.06 995.661 1776.74 1001.11 1770.77 1004.54C1765.36 1007.66 1761.82 1006.27 1761.82 1001.07V985.598L1769.67 981.081V994.787C1769.67 996.777 1769.89 996.981 1770.88 996.409C1771.99 995.773 1772.1 995.378 1772.1 993.388V972.386C1772.1 970.065 1771.88 969.861 1769.67 971.244L1767.9 972.262C1763.81 974.616 1761.27 973.647 1761.49 969.761V945.222C1761.49 938.591 1764.69 932.987 1770.66 929.552C1776.41 926.244 1779.95 927.967 1779.95 934.157V948.306L1772.1 952.822V939.116C1772.1 937.015 1771.88 936.701 1770.77 937.336C1769.89 937.846 1769.34 938.938 1769.56 939.584L1769.67 939.852V961.627L1769.56 961.912C1769.34 963.034 1770 963.426 1771.1 962.679L1771.55 962.424L1773.87 961.088C1778.29 958.544 1780.28 959.61 1780.06 964.269L1780.06 964.268Z" fill="#FBFBFB"/>
<path d="M1575.31 591.571C1574.07 590.87 1573.73 591.241 1573.73 593.379V649.08C1573.73 650.881 1574.19 651.811 1575.31 652.449C1576.43 653.086 1576.77 652.602 1576.77 650.689V595.212C1576.77 592.962 1576.43 592.208 1575.31 591.57V591.571Z" fill="#FBFBFB"/>
<path d="M1485.97 541.535L1485.29 541.152V569.847C1485.63 570.151 1485.97 570.342 1486.19 570.47C1487.32 571.107 1487.54 570.897 1487.54 569.096V544.79C1487.54 542.764 1487.32 542.3 1485.97 541.535Z" fill="#FBFBFB"/>
<path d="M1448.51 502.42V597.682L1613.89 691.025V595.763L1448.51 502.42ZM1473.48 550.777L1465.71 546.379V531.75C1465.71 529.95 1465.38 529.309 1464.25 528.671C1463.24 528.097 1462.9 528.469 1462.9 529.932V585.971C1462.9 587.997 1463.13 588.575 1464.25 589.212C1465.26 589.786 1465.6 589.526 1465.6 588.064V573.21L1473.37 577.607V592.687C1473.37 598.764 1469.77 600.325 1464.03 597.075C1458.51 593.952 1455.03 588.713 1455.03 583.649V526.372C1455.03 519.17 1458.06 517.29 1464.14 520.731C1469.65 523.854 1473.48 529.172 1473.48 533.898V550.778L1473.48 550.777ZM1495.65 614.419L1487.43 609.767V579.159C1487.43 578.709 1486.87 578.165 1485.97 577.656L1485.29 577.273V608.556L1477.19 603.968V528.912L1486.42 534.138C1492.04 537.212 1495.53 542.339 1495.42 547.338V572.32C1495.53 575.084 1494.07 577.407 1492.16 577.335C1494.74 580.152 1495.76 582.863 1495.65 586.4V614.419ZM1514.77 557.734L1508.36 554.102V580.096L1514.77 583.729V591.268L1508.36 587.635V613.855L1514.77 617.488V625.253L1500.03 616.903V541.846L1514.77 550.196V557.734ZM1533.56 635.895L1532.55 620.805L1527.71 618.064L1526.93 632.134L1518.49 627.355L1523.44 555.101L1535.59 561.985L1542.23 640.802L1533.56 635.895ZM1562.15 584.904L1556.63 581.78V648.961L1548.53 644.371V577.191L1543.02 574.068V566.191L1562.15 577.026V584.903V584.904ZM1584.43 655.248C1584.43 658.512 1583.98 660.057 1582.96 660.834C1581.28 662.129 1578.35 661.822 1574.97 659.91C1568.78 656.406 1565.86 651.372 1565.86 643.946V590.832C1565.86 582.279 1568.9 580.062 1575.31 583.694C1581.28 587.072 1584.43 592.457 1584.43 599.322V655.248ZM1607.38 677.701L1599.16 673.048V642.44C1599.16 641.99 1598.6 641.446 1597.7 640.937L1597.03 640.554V671.838L1588.92 667.25V592.193L1598.15 597.419C1603.78 600.493 1607.27 605.62 1607.15 610.619V635.601C1607.27 638.365 1605.8 640.688 1603.89 640.617C1606.48 643.433 1607.49 646.144 1607.38 649.681V677.702L1607.38 677.701Z" fill="#FBFBFB"/>
<path d="M1597.7 604.814L1597.02 604.432V633.126C1597.36 633.43 1597.7 633.622 1597.93 633.749C1599.05 634.387 1599.27 634.176 1599.27 632.376V608.069C1599.27 606.044 1599.05 605.578 1597.7 604.813L1597.7 604.814Z" fill="#FBFBFB"/>
<path d="M1528.05 610.266L1532.1 612.561L1529.74 576.113L1528.05 610.266Z" fill="#FBFBFB"/>
<path d="M1575.31 693.58C1574.07 692.88 1573.73 693.251 1573.73 695.389V751.09C1573.73 752.891 1574.19 753.821 1575.31 754.458C1576.43 755.096 1576.77 754.611 1576.77 752.698V697.222C1576.77 694.971 1576.43 694.218 1575.31 693.579V693.58Z" fill="#FBFBFB"/>
<path d="M1485.97 643.545L1485.29 643.162V671.857C1485.63 672.161 1485.97 672.352 1486.19 672.48C1487.32 673.117 1487.54 672.907 1487.54 671.106V646.8C1487.54 644.774 1487.32 644.31 1485.97 643.545Z" fill="#FBFBFB"/>
<path d="M1448.51 604.43V699.691L1613.89 793.034V697.773L1448.51 604.43ZM1473.48 652.786L1465.71 648.389V633.76C1465.71 631.959 1465.38 631.318 1464.25 630.681C1463.24 630.107 1462.9 630.479 1462.9 631.942V687.981C1462.9 690.007 1463.13 690.584 1464.25 691.222C1465.26 691.796 1465.6 691.536 1465.6 690.074V675.219L1473.37 679.617V694.697C1473.37 700.774 1469.77 702.335 1464.03 699.085C1458.51 695.962 1455.03 690.723 1455.03 685.659V628.382C1455.03 621.18 1458.06 619.3 1464.14 622.741C1469.65 625.864 1473.48 631.182 1473.48 635.907V652.787L1473.48 652.786ZM1495.65 716.429L1487.43 711.776V681.169C1487.43 680.719 1486.87 680.175 1485.97 679.665L1485.29 679.283V710.566L1477.19 705.978V630.921L1486.42 636.148C1492.04 639.222 1495.53 644.348 1495.42 649.348V674.329C1495.53 677.094 1494.07 679.416 1492.16 679.345C1494.74 682.162 1495.76 684.872 1495.65 688.41V716.429ZM1514.77 659.744L1508.36 656.111V682.106L1514.77 685.739V693.278L1508.36 689.645V715.865L1514.77 719.497V727.263L1500.03 718.913V643.856L1514.77 652.206V659.744ZM1533.56 737.905L1532.55 722.815L1527.71 720.074L1526.93 734.144L1518.49 729.365L1523.44 657.111L1535.59 663.995L1542.23 742.812L1533.56 737.905ZM1562.15 686.913L1556.63 683.79V750.97L1548.53 746.381V679.201L1543.02 676.078V668.201L1562.15 679.036V686.912V686.913ZM1584.43 757.258C1584.43 760.521 1583.98 762.067 1582.96 762.844C1581.28 764.139 1578.35 763.832 1574.97 761.92C1568.78 758.415 1565.86 753.382 1565.86 745.955V692.841C1565.86 684.289 1568.9 682.071 1575.31 685.704C1581.28 689.082 1584.43 694.467 1584.43 701.331V757.258ZM1607.38 779.71L1599.16 775.058V744.45C1599.16 744 1598.6 743.456 1597.7 742.947L1597.03 742.564V773.848L1588.92 769.259V694.203L1598.15 699.429C1603.78 702.503 1607.27 707.63 1607.15 712.629V737.611C1607.27 740.375 1605.8 742.698 1603.89 742.626C1606.48 745.443 1607.49 748.154 1607.38 751.691V779.711L1607.38 779.71Z" fill="#FBFBFB"/>
<path d="M1597.7 706.824L1597.02 706.441V735.136C1597.36 735.44 1597.7 735.631 1597.92 735.759C1599.05 736.396 1599.27 736.186 1599.27 734.385V710.079C1599.27 708.053 1599.05 707.588 1597.7 706.823L1597.7 706.824Z" fill="#FBFBFB"/>
<path d="M1528.05 712.28L1532.1 714.574L1529.74 678.127L1528.05 712.28Z" fill="#FBFBFB"/>
<path d="M1575.31 795.59C1574.07 794.889 1573.73 795.26 1573.73 797.398V853.1C1573.73 854.9 1574.19 855.831 1575.31 856.468C1576.43 857.106 1576.77 856.621 1576.77 854.708V799.231C1576.77 796.981 1576.43 796.227 1575.31 795.589V795.59Z" fill="#FBFBFB"/>
<path d="M1485.97 745.554L1485.29 745.172V773.867C1485.63 774.17 1485.97 774.362 1486.19 774.49C1487.32 775.127 1487.54 774.916 1487.54 773.116V748.809C1487.54 746.784 1487.32 746.32 1485.97 745.554Z" fill="#FBFBFB"/>
<path d="M1448.51 706.439V801.701L1613.89 895.044V799.782L1448.51 706.439ZM1473.48 754.796L1465.71 750.398V735.77C1465.71 733.969 1465.38 733.328 1464.25 732.691C1463.24 732.117 1462.9 732.489 1462.9 733.952V789.991C1462.9 792.016 1463.13 792.594 1464.25 793.231C1465.26 793.805 1465.6 793.546 1465.6 792.084V777.229L1473.37 781.627V796.706C1473.37 802.784 1469.77 804.345 1464.03 801.095C1458.51 797.971 1455.03 792.733 1455.03 787.669V730.391C1455.03 723.19 1458.06 721.309 1464.14 724.751C1469.65 727.874 1473.48 733.192 1473.48 737.917V754.797L1473.48 754.796ZM1495.65 818.439L1487.43 813.786V783.178C1487.43 782.729 1486.87 782.185 1485.97 781.675L1485.29 781.292V812.576L1477.19 807.988V732.931L1486.42 738.157C1492.04 741.232 1495.53 746.358 1495.42 751.358V776.339C1495.53 779.104 1494.07 781.426 1492.16 781.355C1494.74 784.171 1495.76 786.882 1495.65 790.42V818.439ZM1514.77 761.754L1508.36 758.121V784.116L1514.77 787.748V795.288L1508.36 791.655V817.875L1514.77 821.507V829.272L1500.03 820.923V745.866L1514.77 754.215V761.754ZM1533.56 839.914L1532.55 824.824L1527.71 822.084L1526.93 836.154L1518.49 831.375L1523.44 759.121L1535.59 766.004L1542.23 844.822L1533.56 839.914ZM1562.15 788.923L1556.63 785.8V852.98L1548.53 848.391V781.211L1543.02 778.088V770.211L1562.15 781.045V788.922V788.923ZM1584.43 859.268C1584.43 862.531 1583.98 864.077 1582.96 864.854C1581.28 866.148 1578.35 865.842 1574.97 863.93C1568.78 860.425 1565.86 855.392 1565.86 847.965V794.851C1565.86 786.299 1568.9 784.081 1575.31 787.714C1581.28 791.092 1584.43 796.477 1584.43 803.341V859.268ZM1607.38 881.72L1599.16 877.068V846.46C1599.16 846.01 1598.6 845.466 1597.7 844.956L1597.03 844.574V875.857L1588.92 871.269V796.212L1598.15 801.439C1603.78 804.513 1607.27 809.639 1607.15 814.639V839.62C1607.27 842.385 1605.8 844.707 1603.89 844.636C1606.48 847.453 1607.49 850.164 1607.38 853.701V881.721L1607.38 881.72Z" fill="#FBFBFB"/>
<path d="M1597.7 808.834L1597.02 808.451V837.146C1597.36 837.45 1597.7 837.641 1597.93 837.769C1599.05 838.406 1599.27 838.196 1599.27 836.395V812.089C1599.27 810.063 1599.05 809.598 1597.7 808.833L1597.7 808.834Z" fill="#FBFBFB"/>
<path d="M1528.05 814.286L1532.1 816.58L1529.74 780.133L1528.05 814.286Z" fill="#FBFBFB"/>
<path d="M1575.31 897.604C1574.07 896.903 1573.73 897.274 1573.73 899.412V955.114C1573.73 956.914 1574.19 957.845 1575.31 958.482C1576.43 959.119 1576.77 958.635 1576.77 956.722V901.245C1576.77 898.995 1576.43 898.241 1575.31 897.603V897.604Z" fill="#FBFBFB"/>
<path d="M1485.97 847.568L1485.29 847.186V875.88C1485.63 876.184 1485.97 876.375 1486.19 876.503C1487.32 877.141 1487.54 876.93 1487.54 875.13V850.823C1487.54 848.798 1487.32 848.333 1485.97 847.568Z" fill="#FBFBFB"/>
<path d="M1448.51 808.453V903.715L1613.89 997.058V901.796L1448.51 808.453ZM1473.48 856.81L1465.71 852.412V837.783C1465.71 835.983 1465.38 835.342 1464.25 834.704C1463.24 834.131 1462.9 834.503 1462.9 835.966V892.005C1462.9 894.03 1463.13 894.608 1464.25 895.245C1465.26 895.819 1465.6 895.559 1465.6 894.097V879.243L1473.37 883.641V898.72C1473.37 904.797 1469.77 906.358 1464.03 903.108C1458.51 899.985 1455.03 894.746 1455.03 889.682V832.405C1455.03 825.203 1458.06 823.323 1464.14 826.764C1469.65 829.887 1473.48 835.205 1473.48 839.931V856.811L1473.48 856.81ZM1495.65 920.452L1487.43 915.8V885.192C1487.43 884.742 1486.87 884.198 1485.97 883.689L1485.29 883.306V914.59L1477.19 910.002V834.945L1486.42 840.171C1492.04 843.245 1495.53 848.372 1495.42 853.371V878.353C1495.53 881.117 1494.07 883.44 1492.16 883.369C1494.74 886.185 1495.76 888.896 1495.65 892.433V920.452ZM1514.77 863.767L1508.36 860.135V886.129L1514.77 889.762V897.301L1508.36 893.669V919.888L1514.77 923.521V931.286L1500.03 922.936V847.88L1514.77 856.229V863.767ZM1533.56 941.928L1532.55 926.838L1527.71 924.098L1526.93 938.168L1518.49 933.388L1523.44 861.134L1535.59 868.018L1542.23 946.835L1533.56 941.928ZM1562.15 890.937L1556.63 887.814V954.994L1548.53 950.405V883.224L1543.02 880.101V872.225L1562.15 883.059V890.936V890.937ZM1584.43 961.281C1584.43 964.545 1583.98 966.091 1582.96 966.867C1581.28 968.162 1578.35 967.855 1574.97 965.944C1568.78 962.439 1565.86 957.406 1565.86 949.979V896.865C1565.86 888.312 1568.9 886.095 1575.31 889.727C1581.28 893.105 1584.43 898.49 1584.43 905.355V961.281ZM1607.38 983.734L1599.16 979.081V948.473C1599.16 948.024 1598.6 947.479 1597.7 946.97L1597.03 946.587V977.871L1588.92 973.283V898.226L1598.15 903.452C1603.78 906.527 1607.27 911.653 1607.15 916.653V941.634C1607.27 944.399 1605.8 946.721 1603.89 946.65C1606.48 949.466 1607.49 952.177 1607.38 955.715V983.735L1607.38 983.734Z" fill="#FBFBFB"/>
<path d="M1597.7 910.847L1597.02 910.465V939.16C1597.36 939.463 1597.7 939.655 1597.92 939.783C1599.05 940.42 1599.27 940.209 1599.27 938.409V914.102C1599.27 912.077 1599.05 911.612 1597.7 910.846L1597.7 910.847Z" fill="#FBFBFB"/>
<path d="M1528.05 916.299L1532.1 918.594L1529.74 882.146L1528.05 916.299Z" fill="#FBFBFB"/>
<path d="M1575.31 999.621C1574.07 998.921 1573.73 999.292 1573.73 1001.43V1057.13C1573.73 1058.93 1574.19 1059.86 1575.31 1060.5C1576.43 1061.14 1576.77 1060.65 1576.77 1058.74V1003.26C1576.77 1001.01 1576.43 1000.26 1575.31 999.62V999.621Z" fill="#FBFBFB"/>
<path d="M1485.97 949.586L1485.29 949.203V977.898C1485.63 978.202 1485.97 978.393 1486.19 978.521C1487.32 979.158 1487.54 978.948 1487.54 977.147V952.841C1487.54 950.815 1487.32 950.351 1485.97 949.586Z" fill="#FBFBFB"/>
<path d="M1448.51 910.471V1005.73L1613.89 1099.08V1003.81L1448.51 910.471ZM1473.48 958.827L1465.71 954.43V939.801C1465.71 938 1465.38 937.359 1464.25 936.722C1463.24 936.148 1462.9 936.52 1462.9 937.983V994.022C1462.9 996.048 1463.13 996.625 1464.25 997.263C1465.26 997.837 1465.6 997.577 1465.6 996.115V981.26L1473.37 985.658V1000.74C1473.37 1006.81 1469.77 1008.38 1464.03 1005.13C1458.51 1002 1455.03 996.764 1455.03 991.7V934.423C1455.03 927.221 1458.06 925.341 1464.14 928.782C1469.65 931.905 1473.48 937.223 1473.48 941.948V958.828L1473.48 958.827ZM1495.65 1022.47L1487.43 1017.82V987.21C1487.43 986.76 1486.87 986.216 1485.97 985.706L1485.29 985.324V1016.61L1477.19 1012.02V936.962L1486.42 942.189C1492.04 945.263 1495.53 950.389 1495.42 955.389V980.37C1495.53 983.135 1494.07 985.457 1492.16 985.386C1494.74 988.203 1495.76 990.914 1495.65 994.451V1022.47ZM1514.77 965.785L1508.36 962.152V988.147L1514.77 991.78V999.319L1508.36 995.686V1021.91L1514.77 1025.54V1033.3L1500.03 1024.95V949.897L1514.77 958.247V965.785ZM1533.56 1043.95L1532.55 1028.86L1527.71 1026.12L1526.93 1040.19L1518.49 1035.41L1523.44 963.152L1535.59 970.036L1542.23 1048.85L1533.56 1043.95ZM1562.15 992.954L1556.63 989.831V1057.01L1548.53 1052.42V985.242L1543.02 982.119V974.242L1562.15 985.077V992.953V992.954ZM1584.43 1063.3C1584.43 1066.56 1583.98 1068.11 1582.96 1068.88C1581.28 1070.18 1578.35 1069.87 1574.97 1067.96C1568.78 1064.46 1565.86 1059.42 1565.86 1052V998.882C1565.86 990.33 1568.9 988.112 1575.31 991.745C1581.28 995.123 1584.43 1000.51 1584.43 1007.37V1063.3ZM1607.38 1085.75L1599.16 1081.1V1050.49C1599.16 1050.04 1598.6 1049.5 1597.7 1048.99L1597.03 1048.61V1079.89L1588.92 1075.3V1000.24L1598.15 1005.47C1603.78 1008.54 1607.27 1013.67 1607.15 1018.67V1043.65C1607.27 1046.42 1605.8 1048.74 1603.89 1048.67C1606.48 1051.48 1607.49 1054.19 1607.38 1057.73V1085.75L1607.38 1085.75Z" fill="#FBFBFB"/>
<path d="M1528.05 1018.32L1532.1 1020.61L1529.74 984.164L1528.05 1018.32Z" fill="#FBFBFB"/>
<path d="M1494.38 445.361V423.322L1527.14 441.996C1521.09 442.071 1509.99 443.654 1500.89 449.076C1491.8 454.498 1485.94 462.756 1486.59 470.747L1447.96 492.262V472.608C1448.73 472.631 1449.5 472.644 1450.28 472.644C1475.01 472.644 1494.38 460.66 1494.38 445.361Z" fill="#FBFBFB"/>
<path d="M1450.28 446.403C1449.5 446.403 1448.73 446.382 1447.96 446.358V465.874C1448.73 465.901 1449.5 465.92 1450.28 465.92C1470.54 465.92 1487.65 456.507 1487.65 445.364V433.771C1479.92 441.412 1466.22 446.403 1450.28 446.403Z" fill="#FBFBFB"/>
<path d="M1450.28 398.756C1449.5 398.756 1448.73 398.775 1447.96 398.802V439.82C1448.73 439.847 1449.5 439.866 1450.28 439.866C1470.54 439.866 1487.65 430.454 1487.65 419.311C1487.65 408.169 1470.54 398.756 1450.28 398.756Z" fill="#FBFBFB"/>
</g>
<path d="M1448.49 322.474V392.51C1449.17 392.489 1449.85 392.469 1450.53 392.469C1472.99 392.469 1490.96 402.387 1493.94 415.657L1537.91 440.718C1554.88 442.204 1568.44 449.435 1573.36 459.255L1617.5 484.175L1624.87 480.017C1641.23 459.71 1651.05 433.9 1651.05 405.789C1651.05 340.389 1598.03 287.371 1532.63 287.371C1499.72 287.371 1469.95 300.804 1448.49 322.474Z" fill="#FF6847"/>
</svg>
